<svg version="1.1" id="Layer_1" xmlns="http://www.w3.org/2000/svg" xmlns:xlink="http://www.w3.org/1999/xlink" x="0px" y="0px"
	 width="100%" viewBox="0 0 148 148" enable-background="new 0 0 148 148" xml:space="preserve">
<path fill="#000000" opacity="0.000000" stroke="none"
	d="
M76.000000,149.000000
	C50.687649,149.000000 25.875296,149.000000 1.031472,149.000000
	C1.031472,99.729347 1.031472,50.458668 1.031472,1.093995
	C50.228828,1.093995 99.457901,1.093995 148.843475,1.093995
	C148.843475,50.332943 148.843475,99.666420 148.843475,149.000000
	C124.792336,149.000000 100.646172,149.000000 76.000000,149.000000
M62.048611,90.577637
	C71.474197,76.566086 68.638885,60.783836 68.968925,45.205219
	C58.856255,45.205219 49.139748,45.205219 38.771561,45.205219
	C39.720264,64.951286 40.507637,84.588783 27.471840,101.083122
	C32.944118,104.275520 37.704914,106.691696 42.041214,109.716431
	C44.692253,111.565636 46.515854,111.450890 48.343590,109.096680
	C52.918659,103.203728 57.426399,97.258514 62.048611,90.577637
M98.545464,104.968468
	C113.792831,87.727127 117.521141,67.413727 114.355873,45.261543
	C104.741692,45.261543 95.024216,45.261543 84.816544,45.261543
	C85.525261,64.952133 86.684219,84.570457 73.346962,100.959572
	C77.982262,103.702675 82.161980,105.604454 85.645454,108.380028
	C90.164024,111.980354 93.477425,111.278610 96.621605,106.892181
	C97.003967,106.358749 97.548126,105.941299 98.545464,104.968468
z"/>
<path fill="#F1DAC4" opacity="1.000000" stroke="none"
	d="
M62.004883,90.955948
	C57.426399,97.258514 52.918659,103.203728 48.343590,109.096680
	C46.515854,111.450890 44.692253,111.565636 42.041214,109.716431
	C37.704914,106.691696 32.944118,104.275520 27.471840,101.083122
	C40.507637,84.588783 39.720264,64.951286 38.771561,45.205219
	C49.139748,45.205219 58.856255,45.205219 68.968925,45.205219
	C68.638885,60.783836 71.474197,76.566086 62.004883,90.955948
z"/>
<path fill="#F1DAC4" opacity="1.000000" stroke="none"
	d="
M98.281387,105.219284
	C97.548126,105.941299 97.003967,106.358749 96.621605,106.892181
	C93.477425,111.278610 90.164024,111.980354 85.645454,108.380028
	C82.161980,105.604454 77.982262,103.702675 73.346962,100.959572
	C86.684219,84.570457 85.525261,64.952133 84.816544,45.261543
	C95.024216,45.261543 104.741692,45.261543 114.355873,45.261543
	C117.521141,67.413727 113.792831,87.727127 98.281387,105.219284
z"/>
</svg>
