<svg version="1.1" id="Layer_1" xmlns="http://www.w3.org/2000/svg" xmlns:xlink="http://www.w3.org/1999/xlink" x="0px" y="0px"
	 width="100%" viewBox="0 0 148 148" enable-background="new 0 0 148 148" xml:space="preserve">
<path fill="#000000" opacity="0.000000" stroke="none"
	d="
M99.000000,149.000000
	C66.027466,149.000000 33.554932,149.000000 1.041197,149.000000
	C1.041197,99.735847 1.041197,50.471661 1.041197,1.103733
	C50.222294,1.103733 99.444878,1.103733 148.833740,1.103733
	C148.833740,50.332870 148.833740,99.666397 148.833740,149.000000
	C132.472015,149.000000 115.986008,149.000000 99.000000,149.000000
M89.234535,53.231678
	C78.279030,68.303017 79.523743,85.521912 80.275452,102.719650
	C90.264915,102.719650 100.000198,102.719650 109.999443,102.719650
	C109.999443,98.468086 110.191162,94.483200 109.964737,90.522217
	C109.175674,76.718796 110.878120,63.588005 118.577133,51.582935
	C120.110275,49.192318 120.580894,45.311584 115.804222,43.302410
	C112.415764,41.521088 109.081352,39.622017 105.607094,38.027660
	C104.514442,37.526241 102.369820,37.270023 101.857063,37.875614
	C97.711411,42.771847 93.840034,47.900303 89.234535,53.231678
M41.564034,103.000023
	C48.989277,103.000023 56.414520,103.000023 63.999462,103.000023
	C63.999462,94.529068 63.984123,86.709938 64.003387,78.890900
	C64.026802,69.390091 67.393280,60.828163 71.884254,52.721790
	C74.652657,47.724720 74.674370,46.503918 69.884033,43.420265
	C57.144650,35.219627 57.213554,35.276844 47.555790,46.908009
	C33.860538,63.401649 32.326908,82.643166 34.543552,103.000023
	C36.615227,103.000023 38.598366,103.000023 41.564034,103.000023
z"/>
<path fill="#F1DAC4" opacity="1.000000" stroke="none"
	d="
M41.072769,103.000023
	C38.598366,103.000023 36.615227,103.000023 34.543552,103.000023
	C32.326908,82.643166 33.860538,63.401649 47.555790,46.908009
	C57.213554,35.276844 57.144650,35.219627 69.884033,43.420265
	C74.674370,46.503918 74.652657,47.724720 71.884254,52.721790
	C67.393280,60.828163 64.026802,69.390091 64.003387,78.890900
	C63.984123,86.709938 63.999462,94.529068 63.999462,103.000023
	C56.414520,103.000023 48.989277,103.000023 41.072769,103.000023
z"/>
<path fill="#F1DAC4" opacity="1.000000" stroke="none"
	d="
M116.111382,43.955135
	C120.580894,45.311584 120.110275,49.192318 118.577133,51.582935
	C110.878120,63.588005 109.175674,76.718796 109.964737,90.522217
	C110.191162,94.483200 109.999443,98.468086 109.999443,102.719650
	C100.000198,102.719650 90.264915,102.719650 80.275452,102.719650
	C79.523743,85.521912 78.279030,68.303017 89.911224,53.058002
	C92.081627,51.215878 93.739944,49.665836 95.040276,47.858269
	C100.383911,40.430195 104.021156,39.539608 112.095245,43.607384
	C113.209526,44.168770 114.761848,43.860691 116.111382,43.955135
z"/>
<path fill="#F1DAC4" opacity="1.000000" stroke="none"
	d="
M115.957802,43.628773
	C114.761848,43.860691 113.209526,44.168770 112.095245,43.607384
	C104.021156,39.539608 100.383911,40.430195 95.040276,47.858269
	C93.739944,49.665836 92.081627,51.215878 90.236450,52.921120
	C93.840034,47.900303 97.711411,42.771847 101.857063,37.875614
	C102.369820,37.270023 104.514442,37.526241 105.607094,38.027660
	C109.081352,39.622017 112.415764,41.521088 115.957802,43.628773
z"/>
</svg>
